<svg xmlns="http://www.w3.org/2000/svg" width="36" height="36" viewBox="0 0 36 36" fill="none">
    <!--main-->
    <g id="logo">
        <path fill-rule="evenodd" clip-rule="evenodd" d="M0 0L128 0.00375313V44.9812L44.7206 45H0V0ZM41.774 2.96497H2.94656V42.035H41.774V2.96497ZM125.065 2.95746H44.7206V42.0275H125.065V2.95746ZM84.4021 23.8249V31.0121C84.4021 32.0967 84.652 32.8849 85.1444 33.3766C85.6441 33.8682 86.2558 34.1159 86.9906 34.1159C87.7217 34.1159 88.3371 33.8682 88.8331 33.3766C89.3292 32.8849 89.5754 32.0967 89.5754 31.0121V23.8249H92.0221V31.0646C92.0221 32.7798 91.5335 34.1009 90.5526 35.0317C89.5717 35.9662 88.3856 36.4354 86.9906 36.4354C85.5807 36.4354 84.3909 35.9662 83.4174 35.0317C82.444 34.1009 81.9554 32.7798 81.9554 31.0646V23.8249H84.4021ZM99.6616 23.6972C100.516 23.6972 101.359 23.8849 102.198 24.2602C103.037 24.6355 103.787 25.1384 104.451 25.769L102.854 27.2477C102.403 26.8799 101.877 26.5834 101.269 26.3545C100.657 26.1293 100.124 26.0167 99.6616 26.0167H99.5236C99.0014 26.0167 98.5165 26.1255 98.0615 26.347C97.6064 26.5684 97.3789 26.9212 97.3789 27.4091C97.3789 27.7882 97.5579 28.0696 97.916 28.246C98.2778 28.4262 98.7888 28.5575 99.449 28.6401L100.445 28.749C101.829 28.9141 102.907 29.2932 103.679 29.8824C104.454 30.4679 104.842 31.3686 104.842 32.5809C104.842 33.7481 104.387 34.6789 103.485 35.3732C102.578 36.0676 101.422 36.4241 100.02 36.4354H99.9115C98.744 36.4354 97.7071 36.1989 96.8008 35.7298C95.8944 35.2606 95.1783 34.6564 94.6487 33.917L96.2413 32.442C96.5621 32.8924 97.0395 33.2827 97.6773 33.6168C98.3151 33.9508 99.0611 34.1159 99.9115 34.1159H100.02C100.739 34.1047 101.314 33.9621 101.747 33.6881C102.179 33.4141 102.396 33.0463 102.396 32.5809C102.396 32.0817 102.198 31.7214 101.81 31.5038C101.418 31.2823 100.851 31.1284 100.105 31.0309L99.1319 30.922C96.3308 30.588 94.9322 29.4508 94.9322 27.4992C94.9322 26.3545 95.3648 25.4425 96.2339 24.7631C97.1029 24.0763 98.1957 23.7235 99.5236 23.6972H99.6616ZM72.7405 23.6991C74.4897 23.6991 75.9817 24.3221 77.2125 25.5607C78.4508 26.8067 79.07 28.308 79.07 30.0682C79.07 31.8246 78.4508 33.3297 77.2125 34.5719C75.9817 35.8105 74.4897 36.4335 72.7405 36.4335C70.9912 36.4335 69.503 35.8105 68.2721 34.5719C67.0413 33.3297 66.4296 31.8246 66.4296 30.0682C66.4296 28.308 67.0413 26.8067 68.2721 25.5607C69.503 24.3221 70.9912 23.6991 72.7405 23.6991ZM56.2714 23.8249V28.8728H61.0754V23.8249H63.5222V36.3115H61.0754V31.1922H56.2714V36.3115H53.8247V23.8249H56.2714ZM115.886 23.8234V26.1428H110.071V28.8713H115.442V31.1907H110.071V33.9906H115.886V36.31H107.625V23.8234H115.886ZM36.2057 8.86451V11.8182H11.753V33.166H33.2704V23.9709H22.3644V21.0171H36.2057V36.1197H8.81767V8.86451H36.2057ZM72.7405 26.0186C71.6402 26.0186 70.7226 26.3976 69.9841 27.1595C69.2419 27.9214 68.8764 28.8897 68.8764 30.0682C68.8764 31.2542 69.2419 32.23 69.9841 32.9844C70.7226 33.7387 71.6402 34.1178 72.7405 34.1178C73.852 34.1178 74.7732 33.7387 75.5154 32.9844C76.2502 32.23 76.6232 31.2542 76.6232 30.0682C76.6232 28.8897 76.2502 27.9214 75.5043 27.1595C74.762 26.3976 73.8408 26.0186 72.7405 26.0186ZM59.3034 8.56952C61.1459 8.56952 62.705 9.26009 63.9843 10.6375L62.388 12.1162C61.5711 11.2943 60.5454 10.8852 59.3034 10.8852C58.2031 10.8852 57.2856 11.2643 56.5471 12.0186C55.8048 12.773 55.4393 13.7488 55.4393 14.9348C55.4393 16.1133 55.8048 17.0854 56.5471 17.8435C57.2856 18.6054 58.2031 18.9882 59.3034 18.9882C60.1426 18.9882 60.8849 18.7555 61.5376 18.2901V16.1321H59.2661V14.278H63.9843V19.2322C62.705 20.6133 61.1459 21.3039 59.3034 21.3039C57.5541 21.3039 56.0659 20.6809 54.8351 19.4386C53.6042 18.2 52.9926 16.695 52.9926 14.9348C52.9926 13.1784 53.6042 11.6734 54.8351 10.4311C56.0659 9.18878 57.5541 8.56952 59.3034 8.56952ZM99.6642 8.54962C100.515 8.54962 101.361 8.73728 102.197 9.11259C103.04 9.48791 103.789 9.98707 104.45 10.6214L102.853 12.1001C102.406 11.7323 101.876 11.432 101.268 11.2068C100.66 10.9817 100.123 10.8691 99.6642 10.8691H99.5224C99.0003 10.8691 98.5154 10.9779 98.0604 11.1993C97.6053 11.417 97.3778 11.7736 97.3778 12.2615C97.3778 12.6405 97.5568 12.922 97.9186 13.0984C98.2804 13.2786 98.7877 13.4099 99.4516 13.4925L100.444 13.5976C101.827 13.7627 102.905 14.1418 103.677 14.731C104.453 15.3165 104.841 16.221 104.841 17.4333C104.841 18.5967 104.39 19.5313 103.484 20.2219C102.581 20.9199 101.425 21.2727 100.019 21.2877H99.9103C98.7429 21.2877 97.706 21.0513 96.7997 20.5822C95.8971 20.1093 95.1809 19.5088 94.6476 18.7694L96.2439 17.2907C96.561 17.7448 97.0421 18.1351 97.6799 18.4654C98.314 18.7994 99.0637 18.9683 99.9103 18.9683H100.019C100.742 18.957 101.313 18.8107 101.745 18.5405C102.178 18.2665 102.394 17.8949 102.394 17.4333C102.394 16.9341 102.197 16.5738 101.809 16.3524C101.417 16.1347 100.854 15.9771 100.108 15.8795L99.1308 15.7744C96.3297 15.4404 94.931 14.2994 94.931 12.3478C94.931 11.2068 95.3637 10.2948 96.2327 9.61176C97.1018 8.92869 98.1984 8.5759 99.5224 8.54962H99.6642ZM70.162 8.67573V15.863C70.162 16.9476 70.4119 17.7358 70.9043 18.2274C71.4041 18.7191 72.0158 18.9668 72.7505 18.9668C73.4816 18.9668 74.097 18.7191 74.5931 18.2274C75.0891 17.7358 75.3353 16.9476 75.3353 15.863V8.67573H77.7821V15.9155C77.7821 17.6307 77.2935 18.9518 76.3125 19.8826C75.3316 20.8171 74.1455 21.2862 72.7505 21.2862C71.3407 21.2862 70.1508 20.8171 69.1774 19.8826C68.2039 18.9518 67.7153 17.6307 67.7153 15.9155V8.67573H70.162ZM91.1203 8.67573V10.9952H85.3055V13.7237H90.6764V16.0431H85.3055V18.843H91.1203V21.1624H82.8587V8.67573H91.1203ZM116.383 8.67423V10.9937H112.978V21.1609H110.531V10.9937H107.129V8.67423H116.383Z" fill="white"/>
    </g>
    <g id="main">
                <path fill-rule="evenodd" clip-rule="evenodd" d="M0 0L256 0.00750626V89.9625L89.4411 90H0V0ZM83.548 5.92994H5.89312V84.0701H83.548V5.92994ZM250.129 5.91493H89.4411V84.055H250.129V5.91493ZM168.804 47.6497V62.0242C168.804 64.1935 169.304 65.7698 170.289 66.7531C171.288 67.7365 172.512 68.2319 173.981 68.2319C175.443 68.2319 176.674 67.7365 177.666 66.7531C178.658 65.7698 179.151 64.1935 179.151 62.0242V47.6497H184.044V62.1293C184.044 65.5596 183.067 68.2018 181.105 70.0634C179.143 71.9324 176.771 72.8707 173.981 72.8707C171.161 72.8707 168.782 71.9324 166.835 70.0634C164.888 68.2018 163.911 65.5596 163.911 62.1293V47.6497H168.804ZM199.323 47.3945C201.031 47.3945 202.717 47.7698 204.396 48.5204C206.074 49.2711 207.573 50.2769 208.901 51.5379L205.709 54.4954C204.806 53.7598 203.754 53.1668 202.538 52.7089C201.315 52.2585 200.248 52.0334 199.323 52.0334H199.047C198.003 52.0334 197.033 52.251 196.123 52.6939C195.213 53.1368 194.758 53.8424 194.758 54.8182C194.758 55.5763 195.116 56.1393 195.832 56.4921C196.556 56.8524 197.578 57.1151 198.898 57.2802L200.89 57.4979C203.657 57.8282 205.813 58.5863 207.357 59.7648C208.909 60.9358 209.685 62.7373 209.685 65.1618C209.685 67.4962 208.775 69.3578 206.969 70.7465C205.157 72.1351 202.844 72.8482 200.039 72.8707H199.823C197.488 72.8707 195.414 72.3978 193.602 71.4596C191.789 70.5213 190.357 69.3128 189.297 67.834L192.483 64.8841C193.124 65.7848 194.079 66.5655 195.355 67.2335C196.63 67.9016 198.122 68.2319 199.823 68.2319H200.039C201.479 68.2093 202.628 67.9241 203.493 67.3762C204.358 66.8282 204.791 66.0926 204.791 65.1618C204.791 64.1635 204.396 63.4429 203.62 63.0075C202.837 62.5646 201.703 62.2569 200.211 62.0617L198.264 61.844C192.662 61.176 189.864 58.9016 189.864 54.9983C189.864 52.7089 190.73 50.8849 192.468 49.5263C194.206 48.1526 196.391 47.447 199.047 47.3945H199.323ZM145.481 47.3983C148.979 47.3983 151.963 48.6443 154.425 51.1214C156.902 53.6134 158.14 56.6159 158.14 60.1364C158.14 63.6493 156.902 66.6593 154.425 69.1439C151.963 71.6209 148.979 72.867 145.481 72.867C141.982 72.867 139.006 71.6209 136.544 69.1439C134.083 66.6593 132.859 63.6493 132.859 60.1364C132.859 56.6159 134.083 53.6134 136.544 51.1214C139.006 48.6443 141.982 47.3983 145.481 47.3983ZM112.543 47.6497V57.7456H122.151V47.6497H127.044V72.623H122.151V62.3845H112.543V72.623H107.649V47.6497H112.543ZM231.773 47.6467V52.2856H220.143V57.7426H230.885V62.3815H220.143V67.9812H231.773V72.62H215.249V47.6467H231.773ZM72.4115 17.729V23.6364H23.5061V66.332H66.5408V47.9417H44.7288V42.0343H72.4115V72.2394H17.6353V17.729H72.4115ZM145.481 52.0371C143.28 52.0371 141.445 52.7952 139.968 54.319C138.484 55.8428 137.753 57.7794 137.753 60.1364C137.753 62.5083 138.484 64.46 139.968 65.9687C141.445 67.4775 143.28 68.2356 145.481 68.2356C147.704 68.2356 149.546 67.4775 151.031 65.9687C152.5 64.46 153.246 62.5083 153.246 60.1364C153.246 57.7794 152.5 55.8428 151.009 54.319C149.524 52.7952 147.682 52.0371 145.481 52.0371ZM118.607 17.139C122.292 17.139 125.41 18.5202 127.969 21.275L124.776 24.2324C123.142 22.5886 121.091 21.7704 118.607 21.7704C116.406 21.7704 114.571 22.5285 113.094 24.0373C111.61 25.546 110.879 27.4977 110.879 29.8696C110.879 32.2266 111.61 34.1707 113.094 35.687C114.571 37.2108 116.406 37.9764 118.607 37.9764C120.285 37.9764 121.77 37.511 123.075 36.5802V32.2641H118.532V28.556H127.969V38.4643C125.41 41.2266 122.292 42.6078 118.607 42.6078C115.108 42.6078 112.132 41.3617 109.67 38.8771C107.208 36.4001 105.985 33.3901 105.985 29.8696C105.985 26.3567 107.208 23.3467 109.67 20.8621C112.132 18.3776 115.108 17.139 118.607 17.139ZM199.328 17.0992C201.029 17.0992 202.722 17.4746 204.393 18.2252C206.079 18.9758 207.579 19.9741 208.899 21.2427L205.706 24.2002C204.811 23.4646 203.752 22.8641 202.536 22.4137C201.32 21.9633 200.246 21.7381 199.328 21.7381H199.045C198.001 21.7381 197.031 21.9558 196.121 22.3987C195.211 22.834 194.756 23.5471 194.756 24.5229C194.756 25.2811 195.114 25.844 195.837 26.1968C196.561 26.5571 197.575 26.8199 198.903 26.985L200.887 27.1952C203.655 27.5254 205.811 28.2836 207.355 29.4621C208.907 30.633 209.682 32.442 209.682 34.8666C209.682 37.1935 208.78 39.0626 206.967 40.4437C205.162 41.8399 202.849 42.5455 200.037 42.5755H199.821C197.486 42.5755 195.412 42.1026 193.599 41.1643C191.794 40.2185 190.362 39.0175 189.295 37.5388L192.488 34.5813C193.122 35.4896 194.084 36.2702 195.36 36.9308C196.628 37.5988 198.127 37.9366 199.821 37.9366H200.037C201.484 37.9141 202.626 37.6214 203.491 37.0809C204.356 36.5329 204.789 35.7898 204.789 34.8666C204.789 33.8682 204.393 33.1476 203.618 32.7048C202.834 32.2694 201.708 31.9541 200.216 31.759L198.262 31.5488C192.659 30.8807 189.862 28.5988 189.862 24.6956C189.862 22.4137 190.727 20.5897 192.465 19.2235C194.204 17.8574 196.397 17.1518 199.045 17.0992H199.328ZM140.324 17.3515V31.7259C140.324 33.8952 140.824 35.4716 141.809 36.4549C142.808 37.4382 144.032 37.9336 145.501 37.9336C146.963 37.9336 148.194 37.4382 149.186 36.4549C150.178 35.4716 150.671 33.8952 150.671 31.7259V17.3515H155.564V31.831C155.564 35.2614 154.587 37.9036 152.625 39.7651C150.663 41.6342 148.291 42.5725 145.501 42.5725C142.681 42.5725 140.302 41.6342 138.355 39.7651C136.408 37.9036 135.431 35.2614 135.431 31.831V17.3515H140.324ZM182.241 17.3515V21.9903H170.611V27.4474H181.353V32.0862H170.611V37.6859H182.241V42.3248H165.717V17.3515H182.241ZM232.766 17.3485V21.9873H225.956V42.3218H221.062V21.9873H214.259V17.3485H232.766Z" fill="white"/>

    </g>
    <g id="mouse">
            <path d="M46.875 39.375C46.875 48.6562 39.2812 56.25 30 56.25C20.7188 56.25 13.125 48.6562 13.125 39.375V20.625C13.125 11.3438 20.7188 3.75 30 3.75C39.2812 3.75 46.875 11.3438 46.875 20.625V39.375Z" stroke="white" stroke-width="2" stroke-miterlimit="10"/>
            <line x1="30" y1="13" x2="30" y2="23" stroke="white" stroke-width="2"/>
    </g>
<!--Sleeping arrangements.-->
    <g id="beds">
            <path d="M54.3604 45.8182V45.7143C54.3604 45.7143 54.3604 45.7143 54.3604 45.6104L48.2342 19.9481V5.61039C48.2342 2.49351 45.7838 0 42.7207 0H21.0751C18.012 0 15.5616 2.49351 15.5616 5.61039V19.9481L9.43545 45.6104C9.43545 45.7143 9.33334 45.9221 9.33334 46.026V62.1299C9.33334 63.1688 10.1502 64 11.1712 64C12.1922 64 13.009 63.1688 13.009 62.1299V59.2208C13.4174 58.0779 19.5436 55.2727 32 55.2727C44.4565 55.2727 50.5826 58.1818 50.991 59.2208V62.1299C50.991 63.1688 51.8078 64 52.8288 64C53.8499 64 54.6667 63.1688 54.6667 62.1299V46.1299C54.4625 46.026 54.3604 45.9221 54.3604 45.8182ZM18.7267 22.026H44.967L50.2763 44.2597H13.4174L18.7267 22.026ZM19.1351 5.61039C19.1351 4.57143 19.952 3.63636 21.0751 3.63636H42.7207C43.7417 3.63636 44.6607 4.46753 44.6607 5.61039V18.3896H19.1351V5.61039ZM31.8979 51.6364C26.1802 51.6364 17.7057 52.3636 12.9069 54.7532V47.8961H50.7868V54.7532C46.0901 52.3636 37.6156 51.6364 31.8979 51.6364Z" fill="#52503B"/>
    </g>
    <g id="bedrooms">
            <path d="M48.7044 0C51.8911 0 54.5639 2.60163 54.6666 5.93171V57.9642C54.6666 61.2943 51.9939 64 48.7044 64H15.2955C12.006 64 9.33331 61.2943 9.33331 57.9642V5.93171C9.33331 2.60163 12.006 0 15.1927 0H48.7044ZM48.6016 3.53821H15.1927C13.8564 3.53821 12.8284 4.68293 12.8284 5.93171V57.9642C12.8284 59.3171 13.9592 60.3577 15.1927 60.3577H48.6016C49.938 60.3577 50.966 59.213 50.966 57.9642V5.93171C50.966 4.57886 49.8352 3.53821 48.6016 3.53821ZM43.1534 27.7854C45.0038 27.7854 46.6485 29.3463 46.6485 31.3236C46.6485 33.3008 45.1066 34.8618 43.1534 34.8618C41.2003 34.8618 39.6583 33.3008 39.6583 31.3236C39.6583 29.3463 41.2003 27.7854 43.1534 27.7854Z" fill="#52503B"/>
    </g>
    <g id="bathrooms">
            <path d="M62.1299 29.1512H57.7662H12.2597V8.89217C12.2597 7.52046 13.2987 6.46531 14.6494 6.46531H22.6494V9.52526C20.4675 9.84181 18.7013 11.7411 18.7013 14.0624V18.7051C18.7013 19.7603 19.5325 20.6044 20.5714 20.6044H27.9481C28.987 20.6044 29.8182 19.7603 29.8182 18.7051V14.0624C29.8182 11.9521 28.3636 10.1584 26.3896 9.63078V4.56603C26.3896 3.51087 25.5584 2.66675 24.5195 2.66675H14.6494C11.3247 2.66675 8.62338 5.41015 8.62338 8.78665V29.0456H6.96104H6.23377H1.87013C0.831169 29.0456 0 29.8898 0 30.9449C0 32.0001 0.831169 32.8442 1.87013 32.8442H4.36364V41.2854C4.36364 47.5109 8.93507 52.6811 14.8571 53.5253L12.5714 58.6955C12.1558 59.6452 12.5714 60.7003 13.5065 61.1224C13.7143 61.2279 14.026 61.3334 14.2338 61.3334C14.961 61.3334 15.5844 60.9114 15.8961 60.2783L18.8052 53.7363H47.3766C47.5844 53.7363 47.7922 53.7363 48.1039 53.7363L51.013 60.2783C51.3247 61.0169 51.9481 61.3334 52.6753 61.3334C52.8831 61.3334 53.1948 61.3334 53.4026 61.1224C54.3377 60.7003 54.7532 59.6452 54.3377 58.6955L51.7403 52.8922C56.3117 51.0984 59.6364 46.5612 59.6364 41.2854V32.8442H62.1299C63.1688 32.8442 64 32.0001 64 30.9449C64 29.9953 63.1688 29.1512 62.1299 29.1512ZM26.0779 16.9114H22.3377V14.0624C22.3377 13.5349 22.7532 13.1128 23.2727 13.1128H25.1429C25.6623 13.1128 26.0779 13.5349 26.0779 14.0624V16.9114ZM56 41.2854C56 46.0337 52.1558 50.0432 47.3766 50.0432H16.6234C11.9481 50.0432 8 46.1392 8 41.2854V32.8442H56V41.2854Z" fill="#52503B"/>
    </g>
    <!--Services -->
    <g id="stove">
                <path d="M33.1364 0C34.6558 0 35.9416 1.22927 36 2.75122V33.1902C36 34.7707 34.7143 36 33.1948 36H2.80519C1.22727 36 0 34.7122 0 33.1902V2.75122C0 1.22927 1.22727 0 2.74675 0H33.1364ZM33.1364 1.99024H2.74675C2.33766 1.99024 1.98701 2.34146 1.98701 2.75122V33.1902C1.98701 33.6 2.33766 33.9512 2.74675 33.9512H33.1364C33.5455 33.9512 33.8961 33.6 33.8961 33.1902V2.75122C33.8961 2.34146 33.5455 1.99024 33.1364 1.99024ZM22.4416 29.6195C23.026 29.6195 23.4935 30.0878 23.4935 30.6732C23.4935 31.2585 23.026 31.7268 22.4416 31.7268H21.5649C20.9805 31.7268 20.513 31.2585 20.513 30.6732C20.513 30.0878 20.9805 29.6195 21.5649 29.6195H22.4416ZM27.8766 29.6195C28.461 29.6195 28.9286 30.0878 28.9286 30.6732C28.9286 31.2585 28.461 31.7268 27.8766 31.7268H27C26.4156 31.7268 25.9481 31.2585 25.9481 30.6732C25.9481 30.0878 26.4156 29.6195 27 29.6195H27.8766ZM10.5779 18.3805C13.0325 18.3805 15.0779 20.4293 15.0779 22.8878C15.0779 25.3463 13.0325 27.3951 10.5779 27.3951C8.12338 27.3951 6.07792 25.3463 6.07792 22.8878C6.07792 20.4293 8.12338 18.3805 10.5779 18.3805ZM25.3052 18.3805C27.8182 18.3805 29.8052 20.4293 29.8052 22.8878C29.8052 25.3463 27.7597 27.3951 25.3052 27.3951C22.8507 27.3951 20.8052 25.3463 20.8052 22.8878C20.8052 20.4293 22.8507 18.3805 25.3052 18.3805ZM10.5779 20.4293C9.23377 20.4293 8.12338 21.5415 8.12338 22.8878C8.12338 24.2341 9.23377 25.3463 10.5779 25.3463C11.9221 25.3463 13.0325 24.2341 13.0325 22.8878C13.0325 21.5415 11.9221 20.4293 10.5779 20.4293ZM25.3052 20.4293C23.961 20.4293 22.8507 21.5415 22.8507 22.8878C22.8507 24.2341 23.961 25.3463 25.3052 25.3463C26.6494 25.3463 27.7597 24.2341 27.7597 22.8878C27.7597 21.5415 26.6494 20.4293 25.3052 20.4293ZM10.5779 5.32683C13.0325 5.32683 15.0779 7.31707 15.0779 9.83415C15.0779 12.2927 13.0325 14.3415 10.5779 14.3415C8.12338 14.3415 6.07792 12.2927 6.07792 9.83415C6.07792 7.37561 8.12338 5.32683 10.5779 5.32683ZM25.3052 5.32683C27.8182 5.32683 29.8052 7.31707 29.8052 9.83415C29.8052 12.2927 27.7597 14.3415 25.3052 14.3415C22.8507 14.3415 20.8052 12.2927 20.8052 9.83415C20.8052 7.37561 22.8507 5.32683 25.3052 5.32683ZM10.5779 7.37561C9.23377 7.37561 8.12338 8.4878 8.12338 9.83415C8.12338 11.1805 9.23377 12.2927 10.5779 12.2927C11.9221 12.2927 13.0325 11.1805 13.0325 9.83415C13.0325 8.4878 11.9221 7.37561 10.5779 7.37561ZM25.3052 7.37561C23.961 7.37561 22.8507 8.4878 22.8507 9.83415C22.8507 11.1805 23.961 12.2927 25.3052 12.2927C26.6494 12.2927 27.7597 11.1805 27.7597 9.83415C27.7597 8.4878 26.6494 7.37561 25.3052 7.37561Z" fill="#52503B" />
    </g>
    <g id="conditioner">
        <path d="M33.1948 9C34.7143 9 36 10.26 36 11.82V24.12C36 25.74 34.7143 27 33.1948 27H2.80519C1.28571 27 0.0584416 25.74 0 24.24V11.88C0 10.26 1.28571 9 2.80519 9H33.1948ZM17.0065 21.24H10.5779V24.9H17.0065V21.24ZM25.4805 21.24H19.0519V24.9H25.4805V21.24ZM8.53247 21.24H2.1039V24.18C2.1039 24.6 2.3961 24.9 2.80519 24.9H8.53247V21.24ZM33.8961 21.24H27.4675V24.9H33.1948C33.6039 24.9 33.9545 24.6 33.8961 24.18V21.24ZM33.1948 11.1H2.80519C2.3961 11.1 2.1039 11.4 2.1039 11.82V19.2H33.9545V11.88C33.9545 11.46 33.6039 11.1 33.1948 11.1ZM29.7468 13.98C30.3312 13.98 30.7987 14.46 30.7987 15.06C30.7987 15.66 30.3312 16.14 29.7468 16.14H26.0065C25.4221 16.14 24.9545 15.66 24.9545 15.06C24.9545 14.46 25.4221 13.98 26.0065 13.98H29.7468Z"
              fill="#52503B"/>

    </g>
    <g id="forest">
        <path d="M29.1132 12.1458L29.3079 12.1564C29.7545 12.2056 30.1451 12.4242 30.4012 12.774L33.7968 17.2861C34.148 17.743 34.2066 18.3712 33.9139 18.8853C33.7382 19.1708 33.5041 19.3993 33.2113 19.5706L35.7873 23.8542C36.08 24.3682 36.08 24.9394 35.7287 25.4534C35.4946 25.9674 34.9677 26.253 34.3822 26.253H30.167V31.2219C30.167 31.7931 29.6987 32.25 29.1132 32.25C28.5278 32.25 28.0595 31.7931 28.0595 31.2219V26.253H23.7857C23.2588 26.253 22.7319 25.9103 22.4392 25.4534C22.1465 24.9965 22.1465 24.3682 22.4392 23.9113L25.0152 19.5706C24.7224 19.4564 24.4883 19.1708 24.3126 18.8853C24.0199 18.3712 24.0785 17.743 24.4297 17.2861L27.8253 12.774C28.118 12.3742 28.5864 12.1458 29.1132 12.1458ZM9.6766 3.75C10.2035 3.75 10.6718 3.97846 10.9646 4.37826L16.4677 11.5746C16.819 12.0316 16.8775 12.6598 16.5848 13.1738C16.2921 13.6879 15.7652 14.0306 15.1212 14.0306L19.2778 21.1698C19.5706 21.6268 19.5706 22.255 19.2778 22.7119C19.0437 23.1688 18.5168 23.4544 17.9313 23.4544H10.7889V31.1648C10.7889 31.736 10.3206 32.1929 9.73514 32.1929C9.1497 32.1929 8.68135 31.736 8.68135 31.1648V23.4544H1.59751C1.01207 23.4544 0.48517 23.1117 0.192449 22.5977C-0.100271 22.1408 -0.0417271 21.5125 0.250994 21.0556L4.81744 14.0306H4.29054C3.7051 14.0306 3.1782 13.6879 2.88548 13.1738C2.59276 12.6598 2.6513 12.0316 3.00257 11.5746L8.38863 4.37826C8.68135 3.97846 9.1497 3.75 9.6766 3.75ZM29.0547 14.4304L26.4202 17.9143C26.6544 18.0286 26.8886 18.257 27.0057 18.4855C27.2984 18.9424 27.2984 19.5706 27.0057 20.0276L24.5468 24.1969H33.5626L31.1037 20.0276C30.811 19.5706 30.811 18.9424 31.1037 18.4855C31.2208 18.257 31.455 18.0286 31.6892 17.9143L29.0547 14.4304ZM9.6766 6.09168L5.1687 12.0887H5.57851C6.16395 12.0887 6.74939 12.4314 6.98357 12.8883C7.21774 13.3452 7.21774 13.9734 6.92502 14.4304L2.41713 21.4554H17.0532L12.8965 14.3732C12.6038 13.9163 12.6038 13.2881 12.8965 12.8312C13.1892 12.4314 13.6576 12.0887 14.1845 12.0887L9.6766 6.09168Z"
              fill="#52503B"/>
    </g>
    <g id="coffee">
        <path d="M31.7102 0H10.5983C8.59324 0 7.001 1.57792 7.001 3.56494V6.37013C7.001 8.00649 8.0625 9.35065 9.59576 9.75974V12.0974C9.59576 12.6818 10.0675 13.1494 10.6573 13.1494C11.247 13.1494 11.7187 12.6818 11.7187 12.0974V9.93507H23.8079C24.6336 9.93507 25.3412 10.6364 25.3412 11.4545V24.5455C25.3412 25.3636 24.6336 26.0649 23.8079 26.0649H14.2545C15.8468 24.8377 16.8493 22.9091 16.8493 20.8052C16.8493 20.2208 16.3775 19.7532 15.7878 19.7532H4.2883C3.69859 19.7532 3.22681 20.2208 3.22681 20.8052C3.22681 22.9091 4.22933 24.8377 5.82157 26.0649H4.34728C2.34224 26.0649 0.75 27.6429 0.75 29.6299V32.4351C0.75 34.4221 2.34224 36 4.34728 36H31.6512C33.6562 36 35.2485 34.4221 35.2485 32.4351V3.56494C35.3074 1.63636 33.6562 0 31.7102 0ZM14.6084 21.7987C14.1366 23.9026 12.2495 25.4221 10.0086 25.4221C7.76764 25.4221 5.88054 23.8442 5.40877 21.7987H14.6084ZM33.2434 32.4351C33.2434 33.2532 32.5358 33.9545 31.7102 33.9545H4.34728C3.52167 33.9545 2.81401 33.2532 2.81401 32.4351V29.6299C2.81401 28.8117 3.52167 28.1104 4.34728 28.1104H23.69C25.695 28.1104 27.2873 26.5325 27.2873 24.5455V11.4545C27.2873 9.46753 25.695 7.88961 23.69 7.88961H10.5983C9.77268 7.88961 9.06502 7.18831 9.06502 6.37013V3.56494C9.06502 2.74675 9.77268 2.04545 10.5983 2.04545H31.6512C32.4768 2.04545 33.1845 2.74675 33.1845 3.56494V32.4351H33.2434Z"
              fill="#52503B"/>
    </g>
    <g id="Scenery">
        <path d="M23.1429 11.3507L23.4085 11.3606C24.6325 11.4526 25.6325 12.1797 26.1234 13.3081L32.961 29.4851H34.9481C35.5325 29.4851 36 29.8881 36 30.4638C36 31.0394 35.5325 31.5 34.9481 31.5H1.05195C0.467533 31.5 0 31.097 0 30.5213C0 29.9456 0.467533 29.4851 1.05195 29.4851H2.33766L8.2987 15.0928C8.76623 13.8838 9.87662 13.1354 11.2208 13.1354C12.5649 13.193 13.6753 13.8838 14.2013 15.0928L16.8896 21.3678L20.2208 13.3081C20.6883 12.0991 21.7987 11.3507 23.1429 11.3507ZM23.1429 13.4232L23.0854 13.4251C22.8637 13.4385 22.3566 13.5384 22.0909 14.1141L17.9416 24.0736L20.2792 29.5426H22.2078V28.161C21.039 27.6429 20.2208 26.2612 20.2208 24.5341C20.2208 22.3465 21.5649 20.677 23.2013 20.677C24.8377 20.677 26.1818 22.4041 26.1818 24.5341C26.1818 26.2612 25.4221 27.6429 24.2532 28.161V29.5426H30.7403L24.1948 14.1141C23.961 13.4808 23.3182 13.4232 23.1429 13.4232ZM11.2208 15.2079C11.0455 15.2079 10.461 15.2655 10.1688 15.8987L4.5 29.5426H18.0584L12.2727 15.8987C12.039 15.2655 11.3961 15.2079 11.2208 15.2079ZM23.2013 22.6343C22.8506 22.6343 22.2662 23.3252 22.2662 24.4765C22.2662 25.6279 22.7922 26.3188 23.2013 26.3188C23.6104 26.3188 24.1364 25.6279 24.1364 24.4765C24.1364 23.3252 23.5519 22.6343 23.2013 22.6343ZM30.7987 4.5C32.8442 4.5 34.4805 6.11194 34.4805 8.12687C34.4805 10.1418 32.7857 11.7537 30.7987 11.7537C28.8117 11.7537 27.1169 10.1418 27.1169 8.12687C27.1169 6.11194 28.7532 4.5 30.7987 4.5ZM30.7987 6.57249C29.9221 6.57249 29.1623 7.26333 29.1623 8.18443C29.1623 9.10554 29.8636 9.79638 30.7987 9.79638C31.7338 9.79638 32.4351 9.10554 32.4351 8.18443C32.4351 7.26333 31.6753 6.57249 30.7987 6.57249Z"
              fill="#52503B"/>
    </g>
    <g id="bag">
        <path
              d="M31.4416 7.65453H25.1883V5.60302C25.1883 3.31705 23.3182 1.5 21.0974 1.5H14.9026C12.6234 1.5 10.8117 3.37567 10.8117 5.60302V7.65453H4.55844C2.04545 7.65453 0 9.70604 0 12.2265V17.9707C0 18.5568 0.467533 19.0258 1.05195 19.0258H1.57792V30.1625C1.57792 32.5657 3.50649 34.5 5.9026 34.5H30.0974C32.4935 34.5 34.4221 32.5657 34.4221 30.1625V19.0258H34.9481C35.5325 19.0258 36 18.5568 36 17.9707V12.2265C36 9.70604 33.9545 7.65453 31.4416 7.65453ZM12.8571 5.60302C12.8571 4.48934 13.7922 3.55151 14.9026 3.55151H21.039C22.1494 3.55151 23.0844 4.48934 23.0844 5.60302V7.65453H12.8571V5.60302ZM2.1039 12.2265C2.1039 10.8783 3.21429 9.70604 4.61688 9.70604H31.5C32.8442 9.70604 34.013 10.8197 34.013 12.2265V16.9742H2.1039V12.2265ZM32.3766 30.1039C32.3766 31.3934 31.3247 32.3899 30.0974 32.3899H5.9026C4.61688 32.3899 3.62338 31.3348 3.62338 30.1039V18.9671H10.8117V22.6012C10.8117 23.1874 11.2792 23.6563 11.8636 23.6563C12.4481 23.6563 12.9156 23.1874 12.9156 22.6012V18.9671H23.2013V22.6012C23.2013 23.1874 23.6688 23.6563 24.2532 23.6563C24.8377 23.6563 25.3052 23.1874 25.3052 22.6012V18.9671H32.4935V30.1039H32.3766Z"
              fill="#52503B"/>
    </g>
    <g id="wine">
        <path d="M26.2376 23.9806C28.3328 21.7634 29.4103 18.7877 29.2307 15.7536L28.2729 3.20908C28.1532 1.40032 26.5968 0 24.7411 0H11.2724C9.41671 0 7.86033 1.40032 7.74061 3.20908L6.78283 15.7536C6.54339 18.7877 7.62089 21.7634 9.77588 23.9806C11.6316 25.9643 14.2056 27.1896 16.9592 27.423V33.8995H12.29C11.6914 33.8995 11.2125 34.3663 11.2125 34.9498C11.2125 35.5332 11.6914 36 12.29 36H23.7235C24.3221 36 24.801 35.5332 24.801 34.9498C24.801 34.3663 24.3221 33.8995 23.7235 33.8995H19.0543V27.423C21.8079 27.1896 24.3819 25.9643 26.2376 23.9806ZM11.2724 2.04214H24.7411C25.4594 2.04214 26.1179 2.62561 26.1778 3.32577L26.5968 8.57699H9.47657L9.8956 3.32577C9.8956 2.62561 10.5541 2.04214 11.2724 2.04214ZM8.93783 15.8703L9.29699 10.6775H26.7165L27.0757 15.8703C27.2553 18.3793 26.4172 20.7131 24.6812 22.5802C22.9453 24.389 20.5508 25.4392 17.9768 25.4392C15.4028 25.4392 13.0682 24.4473 11.2724 22.5802C9.5963 20.7715 8.75824 18.3793 8.93783 15.8703Z"
              fill="#52503B"/>
    </g>
    <g id="pizza">
        <path d="M35.8627 20.6722C34.5743 16.577 31.6461 12.1307 27.7224 8.21103C23.8572 4.29132 19.4064 1.42467 15.3069 0.137603C13.8429 -0.330422 12.2031 0.430118 11.676 1.8927L0.197584 32.0218C-0.21236 33.1334 0.0218934 34.3034 0.841781 35.1225C1.42742 35.7075 2.13018 36 2.8915 36C3.24288 36 3.59426 35.9415 3.94564 35.8245L21.5732 29.0966C21.6318 29.0966 21.6318 29.0966 21.6904 29.0381L23.7986 28.2191L34.0472 24.2994C35.5699 23.7729 36.3312 22.1348 35.8627 20.6722ZM3.24288 33.8354C2.77437 34.0109 2.42299 33.7184 2.30587 33.6599C2.18874 33.5429 1.89592 33.2504 2.13018 32.7238L4.58984 26.2885C5.17548 27.5756 6.40531 28.4531 7.92796 28.4531C9.91911 28.4531 11.5589 26.815 11.5589 24.8259C11.5589 22.8368 9.91911 21.1987 7.92796 21.1987C7.40089 21.1987 6.87382 21.3157 6.40531 21.5497L10.9733 9.4981C11.7346 9.96612 12.4959 10.4341 13.2572 11.0192C12.3202 11.6627 11.7346 12.7743 11.7346 13.9443C11.7346 15.9334 13.3744 17.5715 15.3655 17.5715C16.8882 17.5715 18.1766 16.6355 18.7036 15.3484C21.5147 17.981 24.2672 21.1402 26.6097 25.0014L25.2042 25.5279C25.2042 23.5388 23.5644 21.9008 21.5732 21.9008C19.5821 21.9008 17.9423 23.5388 17.9423 25.5279C17.9423 26.464 18.2937 27.283 18.8793 27.9266L3.24288 33.8354ZM6.28818 24.8259C6.28818 23.9484 6.99094 23.2463 7.86939 23.2463C8.74784 23.2463 9.45061 23.9484 9.45061 24.8259C9.45061 25.7035 8.74784 26.4055 7.86939 26.4055C6.99094 26.4055 6.28818 25.7035 6.28818 24.8259ZM16.9467 13.8273C16.9467 13.8858 16.9467 13.8858 16.9467 13.9443C16.9467 14.8219 16.244 15.5239 15.3655 15.5239C14.4871 15.5239 13.7843 14.8219 13.7843 13.9443C13.7843 13.1253 14.3699 12.4818 15.1898 12.3647C15.7755 12.8328 16.3611 13.3008 16.9467 13.8273ZM21.1633 27.049C20.4605 26.8735 19.9335 26.23 19.9335 25.5279C19.9335 24.6504 20.6362 23.9484 21.5147 23.9484C22.3931 23.9484 23.0959 24.6504 23.0959 25.5279C23.0959 25.879 22.9788 26.1715 22.8031 26.4055L21.1633 27.049ZM33.403 22.3688L28.5423 24.2409C25.6727 19.3851 22.1003 15.5239 18.6451 12.5403C18.5865 12.5403 18.5865 12.4818 18.5279 12.4818C17.708 11.7797 16.8882 11.1362 16.0683 10.5512L16.0097 10.4927C14.4871 9.38109 13.023 8.38654 11.676 7.5675L13.55 2.59473C13.6672 2.24371 14.0186 2.0097 14.3699 2.0097C14.4871 2.0097 14.5456 2.0097 14.6628 2.06821C18.4108 3.23827 22.6274 6.04642 26.2583 9.67361C29.8892 13.3008 32.7003 17.5715 33.8716 21.3157C34.0472 21.7252 33.813 22.1933 33.403 22.3688Z"
              fill="#52503B"/>a
    </g>
    <!--Come together-->
    <g id="wifi">
        <path d="M31.4706 26.3206C34 26.3206 36 28.35 36 30.7853C36 33.2206 33.9412 35.25 31.4706 35.25C29 35.25 26.9412 33.2206 26.9412 30.7853C26.9412 28.35 29 26.3206 31.4706 26.3206ZM33.1176 0.75C33.7059 0.75 34.1765 1.21387 34.1765 1.7937C34.1765 2.37353 33.7059 2.83739 33.1176 2.83739C16 2.83739 2.05882 16.5214 2.11765 33.4525C2.11765 34.0324 1.64706 34.4962 1.05882 34.4962C0.470588 34.4962 0 34.0324 0 33.4525C0 15.4197 14.8235 0.807983 33.1176 0.75ZM33.0588 10.2013C33.6471 10.2013 34.1176 10.6651 34.1176 11.245C34.1176 11.7668 33.7059 12.2307 33.1176 12.2307C21.2353 12.2307 11.5882 21.7399 11.6471 33.3945C11.6471 33.9744 11.1765 34.4382 10.5882 34.4382C10 34.4382 9.52941 33.9744 9.52941 33.3945C9.52941 20.6382 20.0588 10.2013 33.0588 10.2013ZM33.0588 19.5366C33.6471 19.5366 34.1176 20.0004 34.1176 20.5803C34.1176 21.1601 33.7059 21.566 33.1176 21.566C26.5294 21.566 21.1176 26.8424 21.1176 33.3945C21.1176 33.9744 20.6471 34.4382 20.0588 34.4382C19.4706 34.4382 19 33.9744 19 33.3945C19 25.7408 25.2941 19.5366 33.0588 19.5366ZM31.4706 28.408C30.1176 28.408 29 29.5097 29 30.8433C29 32.1769 30.1176 33.2786 31.4706 33.2786C32.8235 33.2786 33.9412 32.1769 33.9412 30.8433C33.9412 29.5097 32.8235 28.408 31.4706 28.408Z"
              fill="#52503B"/>
    </g>
    <g id="bread">
        <path d="M18.0289 10.5C7.96083 10.5 0 14.7339 0 20.0565C0 20.5403 0.0585355 21.0847 0.234142 21.629C0.585355 22.7177 1.40485 23.5645 2.51703 23.9274C5.50234 24.8952 11.4144 25.5 17.9704 25.5C24.5264 25.5 30.4385 24.8952 33.4238 23.9274C34.536 23.5645 35.3555 22.7177 35.7067 21.6895L35.7652 21.5685C35.8823 21.0242 35.9997 20.5403 35.9997 20.0565C36.0579 14.6734 28.0971 10.5 18.0289 10.5ZM33.8921 20.9637V21.0242C33.775 21.4476 33.4238 21.8105 32.9555 21.9315C30.1458 22.8387 24.2923 23.3831 18.0289 23.3831C11.7656 23.3831 5.91209 22.7782 3.16092 21.9315C2.69264 21.75 2.34142 21.4476 2.22435 21.0242C2.10728 20.7218 2.10728 20.3589 2.10728 20.0565C2.10728 17.9395 4.15602 15.9435 7.37548 14.5524C7.96083 17.1532 9.77544 19.0282 11.9413 19.0282C12.5266 19.0282 12.9949 18.5444 12.9949 17.9395C12.9949 17.3347 12.5266 16.8508 11.9413 16.8508C10.712 16.8508 9.59983 15.5806 9.30715 13.7661C11.0632 13.2218 13.112 12.7984 15.2192 12.6169C15.5705 15.5806 17.3265 18.9677 19.9021 18.9677C20.4874 18.9677 20.9557 18.4839 20.9557 17.879C20.9557 17.2742 20.4874 16.7903 19.9021 16.7903C18.7899 16.7903 17.5607 14.6734 17.268 12.4355C17.5021 12.4355 17.7948 12.4355 18.0289 12.4355C19.785 12.4355 21.5411 12.5565 23.1215 12.8589C23.2386 16.1855 25.3459 18.9073 27.8629 18.9073C28.4483 18.9073 28.9166 18.4234 28.9166 17.8185C28.9166 17.2137 28.4483 16.7298 27.8629 16.7298C26.5166 16.7298 25.4044 15.1573 25.1703 13.2218C30.3214 14.4919 33.9506 17.0323 33.9506 19.875C34.0092 20.3589 33.9506 20.6613 33.8921 20.9637Z"
              fill="#52503B"/>
    </g>
    <g id="delivery">
        <path d="M31.2524 24.0195L20.6505 18.4675C20.767 18.1169 20.6505 17.6494 20.301 17.4156C19.8932 17.0649 19.2524 17.1234 18.8447 17.5325C18.7282 17.7078 18.2621 17.8247 17.7379 17.7078C17.2718 17.5909 16.9806 17.2403 16.9223 16.7143C16.8641 15.9545 17.2136 15.4286 18.0874 15.0779C18.6699 14.8442 19.0777 14.2597 19.0194 13.6169V9.81818C21.233 9.35065 22.8641 7.36364 22.8641 4.96753C22.8641 2.22078 20.6505 0 17.9126 0C15.1748 0 12.9612 2.22078 12.9612 4.96753C12.9612 7.36364 14.6505 9.35065 16.9223 9.81818L16.9806 13.2662C15.5243 14.026 14.7087 15.3117 14.8835 16.8896C14.9417 17.474 15.1165 17.9416 15.4078 18.4091L4.74757 24.0195C3.87379 24.4286 3.29126 25.2468 3.05825 26.1818C3.05825 26.1818 3.05825 26.1818 3.05825 26.2403C3 26.474 3 26.7078 3 26.9416V32.7273C3 34.539 4.45631 36 6.26214 36H29.7379C31.5437 36 33 34.539 33 32.7273V26.9416C33 25.6558 32.301 24.5455 31.2524 24.0195ZM15.0583 4.96753C15.0583 3.33117 16.3398 2.04545 17.9709 2.04545C19.6019 2.04545 20.8835 3.33117 20.8835 4.96753C20.8835 6.6039 19.6019 7.88961 17.9709 7.88961C16.3398 7.88961 15.0583 6.6039 15.0583 4.96753ZM17.3301 19.7532L17.3883 19.6948C17.6796 19.7532 17.9126 19.8117 18.2039 19.8117C18.3786 19.8117 18.5534 19.8117 18.7282 19.7532L29.4466 25.3636H6.5534L17.3301 19.7532ZM29.7379 33.9545H6.20388C5.50485 33.9545 4.98058 33.3701 4.98058 32.7273V27.4675H30.9612V32.7273C30.9612 33.3701 30.3786 33.9545 29.7379 33.9545Z"
              fill="#52503B"/>
    </g>
    <g id="eat">
        <path d="M26.6133 0C30.0703 0 32.9414 2.80976 33 6.38049V18.9659C33 20.0195 32.1797 20.839 31.125 20.839H29.8945V33.3073C29.8945 34.7707 28.6641 36 27.1992 36H25.5C24.0352 36 22.8047 34.7707 22.8047 33.3073V1.87317C22.8047 0.819512 23.625 0 24.6797 0H26.6133ZM9.32812 0.0585366C9.91406 0.0585366 10.3828 0.526829 10.3828 1.1122V10.0683H13.6641V1.17073C13.6641 0.585366 14.1328 0.117073 14.7188 0.117073C15.3047 0.117073 15.7148 0.585366 15.7734 1.1122V16.0976C15.7734 16.9756 15.1289 17.6195 14.25 17.6195H12.9023V33.2488C12.9023 34.7122 11.6719 35.9415 10.207 35.9415H8.56641C7.10156 35.9415 5.87109 34.7122 5.87109 33.2488V17.561H4.52344C3.64453 17.561 3 16.9171 3 16.039V1.1122C3 0.585366 3.41016 0.0585366 3.99609 0.0585366C4.58203 0.0585366 5.05078 0.526829 5.05078 1.1122V10.0098H8.27344V1.1122C8.27344 0.526829 8.74219 0.0585366 9.32812 0.0585366ZM27.8438 20.839H24.8555V33.3073C24.8555 33.6585 25.1484 33.9512 25.5 33.9512H27.1992C27.5508 33.9512 27.8438 33.6 27.8438 33.2488V20.839ZM10.8516 17.6195H7.92188V33.3073C7.92188 33.6585 8.21484 33.9512 8.56641 33.9512H10.207C10.5586 33.9512 10.8516 33.6585 10.8516 33.3073V17.6195ZM26.5547 2.04878H24.7969V18.7902H30.8906V6.38049C30.8906 3.98049 28.957 2.04878 26.5547 2.04878ZM13.7227 12.0585H5.05078V15.5707H13.7227V12.0585Z"
              fill="#52503B"/>
    </g>
    <!--Social Media -->
    <g id="media">
        <path d="M16.0398 24.3608C14.2624 22.0899 13.2468 20.1286 12.8914 18.3738C11.3171 12.0256 20.8132 12.0256 19.239 18.3738C18.8327 20.1286 17.7663 22.1931 16.0398 24.3608ZM25.6882 29.5736C22.7429 30.8639 19.7976 28.7994 17.3093 26.0124C24.6218 16.7223 20.6101 11.6643 16.0398 11.6643C12.1804 11.6643 10.0476 14.9158 10.9109 18.8383C11.4187 20.9544 12.6882 23.277 14.7703 25.9608C12.4851 28.4898 10.5554 29.7285 8.77809 29.8833C5.2742 30.451 2.53203 26.993 3.85234 23.4318C4.91874 20.6448 11.7234 6.916 12.0281 6.19343C13.0945 4.02573 13.8054 2.11609 16.1921 2.11609C18.4773 2.11609 19.2898 3.9225 20.4069 6.39988C22.9968 11.4062 26.7038 19.0448 28.4811 23.4318C29.2428 25.7543 28.278 28.4898 25.6882 29.5736ZM29.0397 19.8706C19.9499 0.309671 19.4421 0 16.0398 0C12.8406 0 11.4695 2.27092 10.0984 5.16119C2.58281 20.3867 1.92266 22.4512 1.77031 22.7092C0.0437582 27.664 3.69999 31.9994 8.06716 31.9994C9.59059 31.9994 12.3835 31.5865 15.989 27.5608C20.153 32.1542 23.1491 31.9994 23.9108 31.9994C28.3288 31.9994 31.985 27.6124 30.2077 22.7092C30.2585 22.3996 29.0397 19.9222 29.0397 19.8706Z"
              fill="white"/>
    </g>
    <g id="f">
        <path d="M18.1286 32H14.1939C13.185 32 12.3778 31.1447 12.3778 30.0881V18.1132H9.14936C8.14046 18.1132 7.33334 17.2579 7.33334 16.2013V12.7296C7.33334 11.673 8.14046 10.8176 9.14936 10.8176H12.277V7.6478C12.277 3.06918 15.001 0 19.0366 0H22.0633C23.0722 0 23.8793 0.855346 23.8793 1.91195V5.98742C23.8793 7.04403 23.0722 7.89937 22.0633 7.89937H19.995C19.9446 7.89937 19.9446 7.89937 19.8942 7.89937C19.8942 7.94969 19.8942 8 19.8942 8.05031V10.7673H22.7695C23.3749 10.8176 23.8793 11.0692 24.2324 11.4717C24.5855 11.9245 24.7369 12.5283 24.636 13.0818L24.0307 16.5031C23.9298 17.4088 23.1731 18.0629 22.2146 18.0629H19.8942V30.0881C19.8942 31.0943 19.087 32 18.1286 32ZM13.2354 16.3522C13.7399 16.3522 14.1434 16.7547 14.1434 17.2579V30.0881C14.1434 30.1887 14.1939 30.239 14.1939 30.239H18.1286C18.1286 30.239 18.179 30.1887 18.179 30.0881V17.1572C18.179 16.6541 18.5826 16.2516 19.087 16.2516H22.2651C22.2651 16.2516 22.3155 16.2516 22.3155 16.2013V16.1509L22.9209 12.7799C22.9209 12.6792 22.9209 12.6289 22.8704 12.5786C22.8704 12.5786 22.82 12.5283 22.7695 12.5283H19.0366C18.5321 12.5283 18.1286 12.1258 18.1286 11.6226V8.05031C18.1286 7.14465 18.2799 6.13836 19.995 6.13836H22.0633C22.0633 6.13836 22.1137 6.08805 22.1137 5.98742V1.96226C22.1137 1.86164 22.0633 1.81132 22.0633 1.81132H19.087C16.0603 1.81132 14.093 4.12579 14.093 7.69811V11.7736C14.093 12.2767 13.6894 12.6792 13.185 12.6792H9.14936C9.14936 12.6792 9.09892 12.7296 9.09892 12.8302V16.3019C9.09892 16.4025 9.14936 16.4528 9.14936 16.4528L13.2354 16.3522Z"
              fill="white"/>
    </g>
    <g id="logoFooter">
        <path fill-rule="evenodd" clip-rule="evenodd" d="M0 0L200 0.0058382V69.9708L69.8759 70H0V0ZM65.2719 4.61218H4.604V65.3878H65.2719V4.61218ZM195.413 4.6005H69.8759V65.3761H195.413V4.6005ZM131.878 37.0609V48.241C131.878 49.9283 132.269 51.1543 133.038 51.9191C133.819 52.6839 134.775 53.0692 135.923 53.0692C137.065 53.0692 138.027 52.6839 138.802 51.9191C139.577 51.1543 139.962 49.9283 139.962 48.241V37.0609H143.785V48.3228C143.785 50.9908 143.021 53.0459 141.488 54.4937C139.956 55.9475 138.102 56.6772 135.923 56.6772C133.72 56.6772 131.861 55.9475 130.34 54.4937C128.819 53.0459 128.055 50.9908 128.055 48.3228V37.0609H131.878ZM155.721 36.8624C157.056 36.8624 158.373 37.1543 159.684 37.7381C160.995 38.3219 162.167 39.1043 163.204 40.0851L160.71 42.3853C160.005 41.8132 159.183 41.352 158.233 40.9958C157.277 40.6455 156.444 40.4704 155.721 40.4704H155.506C154.69 40.4704 153.932 40.6397 153.221 40.9842C152.51 41.3286 152.155 41.8774 152.155 42.6364C152.155 43.226 152.434 43.6639 152.994 43.9383C153.559 44.2185 154.357 44.4229 155.389 44.5513L156.945 44.7206C159.107 44.9775 160.791 45.5671 161.998 46.4837C163.21 47.3945 163.816 48.7957 163.816 50.6814C163.816 52.4971 163.105 53.945 161.695 55.025C160.279 56.1051 158.472 56.6597 156.281 56.6772H156.112C154.288 56.6772 152.667 56.3094 151.251 55.5797C149.835 54.8499 148.716 53.9099 147.889 52.7598L150.377 50.4654C150.878 51.166 151.624 51.7731 152.621 52.2927C153.617 52.8123 154.783 53.0692 156.112 53.0692H156.281C157.405 53.0517 158.303 52.8299 158.979 52.4037C159.655 51.9775 159.993 51.4053 159.993 50.6814C159.993 49.9049 159.684 49.3445 159.078 49.0058C158.466 48.6614 157.58 48.422 156.415 48.2702L154.894 48.1009C150.517 47.5813 148.331 45.8123 148.331 42.7765C148.331 40.9958 149.008 39.5771 150.365 38.5204C151.723 37.452 153.431 36.9033 155.506 36.8624H155.721ZM113.657 36.8653C116.39 36.8653 118.721 37.8344 120.645 39.7611C122.579 41.6993 123.547 44.0346 123.547 46.7727C123.547 49.505 122.579 51.8461 120.645 53.7786C118.721 55.7052 116.39 56.6743 113.657 56.6743C110.924 56.6743 108.598 55.7052 106.675 53.7786C104.752 51.8461 103.796 49.505 103.796 46.7727C103.796 44.0346 104.752 41.6993 106.675 39.7611C108.598 37.8344 110.924 36.8653 113.657 36.8653ZM87.9241 37.0609V44.9133H95.4304V37.0609H99.2534V56.4846H95.4304V48.5213H87.9241V56.4846H84.1011V37.0609H87.9241ZM181.072 37.0585V40.6666H171.987V44.9109H180.379V48.5189H171.987V52.8742H181.072V56.4822H168.164V37.0585H181.072ZM56.5715 13.7892V18.3839H18.3641V51.5916H51.985V37.288H34.9443V32.6933H56.5715V56.1862H13.7776V13.7892H56.5715ZM113.657 40.4733C111.938 40.4733 110.504 41.063 109.35 42.2481C108.19 43.4333 107.619 44.9395 107.619 46.7727C107.619 48.6176 108.19 50.1355 109.35 51.309C110.504 52.4825 111.938 53.0721 113.657 53.0721C115.394 53.0721 116.833 52.4825 117.993 51.309C119.141 50.1355 119.724 48.6176 119.724 46.7727C119.724 44.9395 119.141 43.4333 117.975 42.2481C116.816 41.063 115.376 40.4733 113.657 40.4733ZM92.6616 13.3304C95.5405 13.3304 97.9766 14.4046 99.9755 16.5472L97.4812 18.8475C96.2049 17.5689 94.6022 16.9325 92.6616 16.9325C90.9424 16.9325 89.5087 17.5222 88.3548 18.6957C87.1951 19.8691 86.6239 21.3871 86.6239 23.2319C86.6239 25.0651 87.1951 26.5772 88.3548 27.7565C89.5087 28.9417 90.9424 29.5372 92.6616 29.5372C93.9728 29.5372 95.1326 29.1752 96.1525 28.4513V25.0943H92.6033V22.2103H99.9755V29.9167C97.9766 32.0651 95.5405 33.1394 92.6616 33.1394C89.9283 33.1394 87.603 32.1702 85.6798 30.2378C83.7566 28.3112 82.8009 25.9701 82.8009 23.2319C82.8009 20.4997 83.7566 18.1585 85.6798 16.2261C87.603 14.2937 89.9283 13.3304 92.6616 13.3304ZM155.725 13.2994C157.054 13.2994 158.377 13.5913 159.682 14.1751C160.999 14.759 162.171 15.5354 163.202 16.5221L160.708 18.8224C160.009 18.2502 159.181 17.7832 158.231 17.4329C157.281 17.0826 156.442 16.9074 155.725 16.9074H155.504C154.688 16.9074 153.93 17.0767 153.219 17.4212C152.508 17.7598 152.153 18.3144 152.153 19.0734C152.153 19.6631 152.433 20.1009 152.998 20.3753C153.563 20.6555 154.356 20.8599 155.393 20.9883L156.943 21.1518C159.105 21.4087 160.79 21.9983 161.996 22.9149C163.208 23.8257 163.814 25.2327 163.814 27.1184C163.814 28.9283 163.109 30.382 161.693 31.4562C160.283 32.5421 158.476 33.0909 156.279 33.1143H156.11C154.286 33.1143 152.666 32.7465 151.249 32.0167C149.839 31.2811 148.72 30.347 147.887 29.1968L150.381 26.8966C150.876 27.603 151.628 28.2102 152.625 28.7239C153.616 29.2435 154.787 29.5063 156.11 29.5063H156.279C157.41 29.4887 158.301 29.2611 158.977 28.8407C159.653 28.4145 159.991 27.8365 159.991 27.1184C159.991 26.342 159.682 25.7815 159.076 25.437C158.464 25.0984 157.584 24.8532 156.419 24.7014L154.892 24.5379C150.515 24.0183 148.33 22.2435 148.33 19.2077C148.33 17.4329 149.006 16.0142 150.364 14.9516C151.722 13.8891 153.435 13.3403 155.504 13.2994H155.725ZM109.628 13.4956V24.6757C109.628 26.363 110.019 27.589 110.788 28.3538C111.569 29.1186 112.525 29.5039 113.673 29.5039C114.815 29.5039 115.777 29.1186 116.552 28.3538C117.327 27.589 117.711 26.363 117.711 24.6757V13.4956H121.534V24.7575C121.534 27.4255 120.771 29.4806 119.238 30.9284C117.706 32.3822 115.852 33.1119 113.673 33.1119C111.47 33.1119 109.611 32.3822 108.09 30.9284C106.569 29.4806 105.805 27.4255 105.805 24.7575V13.4956H109.628ZM142.375 13.4956V17.1036H133.29V21.348H141.682V24.956H133.29V29.3113H142.375V32.9193H129.467V13.4956H142.375ZM181.849 13.4932V17.1013H176.528V32.9169H172.705V17.1013H167.39V13.4932H181.849Z" fill="white"/>

    </g>

    <g id="inst">

        <path d="M24.0378 0C28.422 0 32 3.53312 32 7.92429V24.0252C32 28.4164 28.4724 32 24.0882 32H7.9622C3.57795 32 0 28.4669 0 24.0757V7.92429C0 3.53312 3.52756 0 7.91181 0H24.0378ZM24.0378 1.76656H7.91181C4.53543 1.76656 1.76378 4.54259 1.76378 7.92429V24.0757C1.76378 27.5079 4.53543 30.2839 7.91181 30.2839H24.0882C27.4646 30.2839 30.2362 27.5079 30.2362 24.0757V7.97476C30.2362 4.54259 27.4646 1.76656 24.0378 1.76656ZM15.9748 8.58044C20.0567 8.58044 23.3827 11.9117 23.3827 16C23.3827 20.0883 20.0567 23.4196 15.9748 23.4196C11.8929 23.4196 8.56693 20.0883 8.56693 16C8.56693 11.9117 11.8929 8.58044 15.9748 8.58044ZM15.9748 10.347C12.8504 10.347 10.3307 12.8707 10.3307 16C10.3307 19.1293 12.8504 21.653 15.9748 21.653C19.0992 21.653 21.6189 19.1293 21.6189 16C21.6189 12.8707 19.0992 10.347 15.9748 10.347ZM24.0882 4.94637C25.1465 4.94637 26.0031 5.80442 26.0031 6.86435C26.0031 7.92429 25.1465 8.78234 24.0882 8.78234C23.0299 8.78234 22.1732 7.92429 22.1732 6.86435C22.1732 5.80442 23.0299 4.94637 24.0882 4.94637Z"
              fill="white"/>
    </g>
    <g id="star">

        <path d="M17.5927 6.48942L11.9726 5.62002L9.42655 0.279449C9.24025 -0.0931496 8.74346 -0.0931496 8.55716 0.279449L6.01107 5.65107L0.422094 6.48942C0.0184458 6.55152 -0.136803 7.07937 0.173695 7.35882L4.24123 11.5505L3.27868 17.419C3.21658 17.8226 3.62023 18.1642 3.99283 17.9158L9.05395 15.1523L14.084 17.9158C14.4256 18.1021 14.8603 17.7916 14.7671 17.419L13.8046 11.5505L17.8721 7.35882C18.1205 7.07937 17.9963 6.55152 17.5927 6.48942Z" fill="#52503B"/>

    </g>
</svg>